<svg width="24" height="24" viewBox="0 0 24 24" fill="none" xmlns="http://www.w3.org/2000/svg">
<path d="M3.99976 6H19.9998L18.4198 20.22C18.3656 20.7094 18.1328 21.1616 17.766 21.49C17.3992 21.8184 16.9241 22 16.4318 22H7.56776C7.07539 22 6.60032 21.8184 6.2335 21.49C5.86669 21.1616 5.63392 20.7094 5.57976 20.22L3.99976 6Z" stroke="#4295E4" stroke-width="1.5" stroke-linecap="round" stroke-linejoin="round"/>
<path d="M7.345 3.147C7.50675 2.80397 7.76271 2.514 8.083 2.31091C8.4033 2.10782 8.77474 2 9.154 2H14.846C15.2254 1.99981 15.5971 2.10755 15.9176 2.31064C16.2381 2.51374 16.4942 2.80381 16.656 3.147L18 6H6L7.345 3.147Z" stroke="#4295E4" stroke-width="1.5" stroke-linecap="round" stroke-linejoin="round"/>
<path d="M2.00024 6H22.0002" stroke="#4295E4" stroke-width="1.5" stroke-linecap="round" stroke-linejoin="round"/>
<path d="M9.99976 11V16" stroke="#4295E4" stroke-width="1.5" stroke-linecap="round" stroke-linejoin="round"/>
<path d="M14.0002 11V16" stroke="#4295E4" stroke-width="1.5" stroke-linecap="round" stroke-linejoin="round"/>
</svg>
