<svg width="12" height="12" viewBox="0 0 12 12" fill="none" xmlns="http://www.w3.org/2000/svg">
<g clip-path="url(#clip0_2099_101)">
<path d="M11 4.5H1.00001C0.862008 4.5 0.75 4.61201 0.75 4.75001V11.75C0.75 11.888 0.862008 12 1.00001 12H11C11.138 12 11.25 11.888 11.25 11.75V4.75001C11.25 4.61201 11.138 4.5 11 4.5ZM10.75 11.5H1.24999V4.99999H10.75V11.5H10.75Z" fill="#4295E4"/>
<path d="M11.5001 2.5H0.500042C0.362042 2.5 0.250034 2.61201 0.250034 2.75001V4.75C0.250034 4.888 0.362042 5.00001 0.500042 5.00001H11.5C11.638 5.00001 11.75 4.888 11.75 4.75V2.75001C11.75 2.61198 11.6381 2.5 11.5001 2.5ZM11.25 4.5H0.75005V2.99999H11.25V4.5Z" fill="#4295E4"/>
<path d="M5.9999 2.5C5.8619 2.5 5.74989 2.61201 5.74989 2.75001V11.75C5.74989 11.888 5.8619 12 5.9999 12C6.1379 12 6.24991 11.888 6.24991 11.75V2.75001C6.24991 2.61198 6.1379 2.5 5.9999 2.5Z" fill="#4295E4"/>
<path d="M6.2555 2.691C5.99851 1.48549 4.4655 0.192 3.444 0.0190078C3.381 0.00649219 3.3165 0 3.25001 0C2.6985 0 2.25 0.4485 2.25 1.00001C2.25 1.23052 2.33051 1.45552 2.4765 1.63402C2.47849 1.63552 2.47999 1.63802 2.48149 1.64002C3.22399 2.58851 5.69551 2.95202 5.9765 2.99051C5.98801 2.99201 5.99949 2.99302 6.01051 2.99302C6.08 2.99302 6.146 2.96452 6.194 2.91302C6.2495 2.85349 6.27252 2.7705 6.2555 2.691ZM2.86849 1.32251C2.86399 1.31602 2.859 1.31051 2.85399 1.305C2.78599 1.21751 2.74999 1.11199 2.74999 1.00001C2.74999 0.724008 2.9745 0.500016 3.24999 0.500016C3.28299 0.500016 3.31549 0.503508 3.35398 0.510516C4.10349 0.637523 5.23498 1.54451 5.64148 2.42951C4.77101 2.26901 3.3015 1.8945 2.86849 1.32251Z" fill="#4295E4"/>
<path d="M8.74993 0C8.68344 0 8.61894 0.00649219 8.56292 0.0175078C7.53493 0.192 6.00193 1.48549 5.74494 2.691C5.72795 2.7705 5.75094 2.85349 5.80644 2.913C5.85395 2.964 5.92044 2.99299 5.98944 2.99299C6.00043 2.99299 6.01194 2.99198 6.02293 2.991C6.30393 2.95249 8.77543 2.589 9.51793 1.64051C9.51992 1.63852 9.52142 1.63601 9.52344 1.63402C9.66943 1.45549 9.74993 1.23049 9.74993 1.00001C9.74993 0.4485 9.30144 0 8.74993 0ZM9.14593 1.30549C9.14094 1.311 9.13592 1.31648 9.13142 1.323C8.69893 1.89401 7.22942 2.2695 6.35842 2.43C6.76541 1.54399 7.89741 0.6375 8.65292 0.509508C8.68442 0.503508 8.71693 0.500016 8.74993 0.500016C9.02544 0.500016 9.24992 0.724008 9.24992 1.00001C9.24994 1.11199 9.21394 1.21699 9.14593 1.30549Z" fill="#4295E4"/>
</g>
<defs>
<clipPath id="clip0_2099_101">
<rect width="12" height="12" fill="white"/>
</clipPath>
</defs>
</svg>
